<?xml version="1.0" encoding="utf-8"?>
<!-- Generator: Adobe Illustrator 27.5.0, SVG Export Plug-In . SVG Version: 6.00 Build 0)  -->
<svg version="1.1" id="Layer_1" xmlns="http://www.w3.org/2000/svg" xmlns:xlink="http://www.w3.org/1999/xlink" x="0px" y="0px"
	 viewBox="0 0 32 32" style="enable-background:new 0 0 32 32;" xml:space="preserve">
<style type="text/css">
	.st0{fill-rule:evenodd;clip-rule:evenodd;fill:#DBAE4D;}
</style>
<g>
	<g>
		<g>
			<path class="st0" d="M17.3,3.8l0,0.2l1.4,0H20L19,4.7c-0.6,0.4-1.1,0.8-1.1,0.8c0,0,0.2,0.6,0.4,1.3c0.2,0.7,0.4,1.3,0.4,1.3
				s-0.5-0.3-1.1-0.8c-0.6-0.4-1.1-0.8-1.1-0.8c0,0-0.5,0.4-1.1,0.8c-1.2,0.9-1.1,0.8-1.1,0.8c0,0,0.8-2.3,0.8-2.4l0-0.1l-1.1-0.8
				L13,4l2.7,0l0-0.2c0-0.1,0.2-0.7,0.4-1.3c0.2-0.6,0.4-1.1,0.4-1.1C16.5,1.4,16.9,2.6,17.3,3.8"/>
			<path class="st0" d="M9.9,5.5L9.9,5.5l1.5,0.1L10.8,6c-0.3,0.3-0.6,0.4-0.6,0.5c0,0,0.1,0.3,0.2,0.7c0.1,0.4,0.2,0.7,0.2,0.7
				S10.4,7.7,10,7.4C9.7,7.2,9.4,7,9.4,7S9.2,7.2,8.8,7.4C8.2,7.9,8.2,7.9,8.2,7.9c0,0,0.4-1.3,0.4-1.4l0,0L8.1,6L7.5,5.6H9l0-0.1
				c0-0.1,0.1-0.4,0.2-0.7c0.1-0.3,0.2-0.6,0.2-0.6S9.6,4.8,9.9,5.5"/>
			<path class="st0" d="M23.3,5.4L23.3,5.4l1.5,0.1L24.2,6c-0.3,0.2-0.6,0.4-0.6,0.4c0,0,0.1,0.3,0.2,0.7c0.1,0.4,0.2,0.7,0.2,0.7
				c0,0-0.3-0.2-0.6-0.4c-0.3-0.3-0.6-0.4-0.6-0.4s-0.3,0.2-0.6,0.4c-0.6,0.5-0.6,0.4-0.6,0.4c0,0,0.4-1.2,0.4-1.3l0,0L21.6,6
				L21,5.5h1.5l0-0.1c0-0.1,0.1-0.4,0.2-0.7c0.1-0.3,0.2-0.6,0.2-0.6S23.1,4.8,23.3,5.4"/>
		</g>
	</g>
	<path class="st0" d="M9.5,10.2c0.7,0.6,1.7,1.3,2.2,1.4c0.3,0.1,0.7,0.2,1.1,0.2c0.3,0,0.5,0,1.3,0h2.7c3.4,0,3.4,0,3.6,0
		c0.5-0.1,0.8-0.2,1.2-0.5c0.3-0.2,0.4-0.2,0.5-0.1c0.1,0.1,0.3,0.7,0.8,2c0.4,1.1,0.5,1.4,0.5,1.5c0,0.1-0.2,0.1-0.9-0.3
		c-0.7-0.3-1-0.5-1.5-0.6c-0.6-0.1-0.7-0.2-1.3-0.2c-0.6,0-1.6,0.1-1.9,0.1l-0.1,0v2.8h0.2c0.5,0,0.8-0.2,1-0.5c0-0.1,0-0.2,0.1-0.4
		c0-0.4,0.1-0.5,0.3-0.7c0.2-0.2,0.4-0.1,0.5,0.2c0,0.1,0,0.3,0,2s0,2.2-0.1,2.4c-0.1,0.2-0.1,0.2-0.3,0.2c-0.3,0-0.4-0.3-0.4-0.8
		c0-0.1,0-0.3-0.1-0.3c-0.1-0.3-0.4-0.5-0.9-0.5l-0.2,0V22c0,3.2,0,3.8,0,3.8c0.1,0,0.4-0.3,0.6-0.5c0.3-0.3,0.5-0.5,0.8-1.1
		c0.5-1.1,1.3-2.9,3.2-7.2c0.4-0.8,0.7-1.5,0.7-1.6c0,0,0.1-0.1,0.1-0.1c0.1-0.1,0-0.3,1.7,4.5c0.3,1,0.8,2.3,1,2.9
		c0.4,1.2,0.7,1.9,0.8,2.1c0.1,0.3,0.3,0.6,0.6,0.8c0.3,0.3,0.3,0.3,0.2,0.5l-0.1,0.1h-2c-1.1,0-2,0-2,0c-0.1,0-0.1-0.1,0-0.2
		c0,0,0.1-0.1,0.2-0.1c0.4-0.3,0.7-0.8,0.6-1.3c0-0.2-0.2-0.6-0.3-0.9l-0.1-0.2h-3.2l0,0.1c-0.1,0.1-0.4,0.6-0.4,0.8
		c-0.1,0.3-0.1,0.5,0,0.7c0.2,0.4,0.5,0.6,0.9,0.7c0.2,0,0.3,0.3,0.2,0.4l0,0.1h-1.7l-1.7,0v0.8l0.2,0.2c0.2,0.1,0.5,0.7,0.7,1
		c0.1,0.2,0.3,0.3,0.5,0.4c0.4,0.2,0.5,0.2,1.1,0.2c0.6,0,0.6,0,0.6,0.2c0.1,0.1-0.2,0.5-0.6,0.8c-0.4,0.3-1,0.5-1.4,0.6
		c-0.3,0.1-0.7,0.1-0.9,0c-0.4-0.1-0.8-0.3-1.1-0.6c-0.1-0.1-0.3-0.3-0.5-0.5c-0.4-0.4-0.5-0.5-0.7-0.6c-0.2-0.1-0.7-0.3-1.3-0.4
		c-0.9-0.2-0.9-0.3-0.8-0.4c0-0.1,0.2-0.2,0.5-0.4c0.3-0.2,0.4-0.3,0.6-0.4c0.1-0.1,0.2-0.3,0.3-0.5l0.1-0.2V13.8h-0.2
		c-1.6,0.2-2.6,0-3.5-0.5c-0.4-0.3-1-0.8-1.4-1.2c-0.6-0.8-1-1.8-0.8-2c0,0,0.1-0.1,0.1-0.1C9.3,10,9.4,10,9.5,10.2 M10.7,15.1
		c0,0,0.1,0.2,0.1,0.4c0.1,0.2,0.5,1.3,0.9,2.5c0.9,2.5,1,2.9,1.6,4.5c0.6,1.7,0.7,2.1,0.8,2.2c0.1,0.2,0.3,0.5,0.6,0.8
		c0.1,0.1,0.2,0.2,0.2,0.3c0,0.1,0,0.1-0.1,0.2l-0.1,0h-1.9c-1.7,0-2,0-2,0c-0.1-0.1-0.1-0.2,0-0.3c0.3-0.1,0.5-0.5,0.6-0.8
		c0-0.1,0-0.2,0.1-0.4c0-0.3,0-0.4-0.2-0.8l-0.1-0.3H7.8l-0.2,0.3c-0.4,0.8-0.4,1.1-0.1,1.5c0.1,0.1,0.3,0.3,0.4,0.4
		c0.1,0,0.2,0.1,0.3,0.1c0.1,0,0.2,0,0.2,0c0.1,0,0.2,0.2,0.1,0.3c0,0-0.1,0.1-0.1,0.1c-0.1,0-0.1,0-2,0s-1.9,0-2,0
		c-0.1,0-0.1-0.1-0.1-0.2c0-0.1,0-0.1,0.2-0.1c0.4-0.1,0.8-0.3,1.2-0.7c0.3-0.3,0.6-0.9,1.3-2.4C7.4,22,8.4,19.8,10,16
		c0.3-0.7,0.4-0.8,0.4-0.9c0,0,0.1-0.1,0.1-0.1C10.7,15.1,10.7,15.1,10.7,15.1 M8.3,22.2c0,0,0,0,1.2,0s1.2,0,1.2,0
		c-0.2-0.5-1.1-2.9-1.1-2.9C9.7,19.3,8.3,22.1,8.3,22.2 M21,22.4c0,0,0.5,0,1.2,0c0.8,0,1.2,0,1.2,0c0,0-0.2-0.7-0.5-1.4
		c-0.3-0.8-0.5-1.4-0.6-1.4C22.3,19.6,21,22.3,21,22.4"/>
</g>
</svg>
